<?xml version="1.0" standalone="no"?><!DOCTYPE svg PUBLIC "-//W3C//DTD SVG 1.1//EN" "http://www.w3.org/Graphics/SVG/1.1/DTD/svg11.dtd"><svg t="1524966124984" class="icon" style="" viewBox="0 0 1024 1024" version="1.1" xmlns="http://www.w3.org/2000/svg" p-id="2429" xmlns:xlink="http://www.w3.org/1999/xlink" width="200" height="200"><defs><style type="text/css"></style></defs><path d="M896 277.333333 341.333333 277.333333C329.557333 277.333333 320 267.776 320 256 320 244.224 329.557333 234.666667 341.333333 234.666667L896 234.666667C907.797333 234.666667 917.333333 244.224 917.333333 256 917.333333 267.776 907.797333 277.333333 896 277.333333" p-id="2430" ></path><path d="M896 533.333333 341.333333 533.333333C329.557333 533.333333 320 523.776 320 512 320 500.224 329.557333 490.666667 341.333333 490.666667L896 490.666667C907.797333 490.666667 917.333333 500.224 917.333333 512 917.333333 523.776 907.797333 533.333333 896 533.333333" p-id="2431" ></path><path d="M896 789.333333 341.333333 789.333333C329.557333 789.333333 320 779.776 320 768 320 756.224 329.557333 746.666667 341.333333 746.666667L896 746.666667C907.797333 746.666667 917.333333 756.224 917.333333 768 917.333333 779.776 907.797333 789.333333 896 789.333333" p-id="2432" ></path><path d="M213.333333 277.333333 128 277.333333C116.224 277.333333 106.666667 267.776 106.666667 256 106.666667 244.224 116.224 234.666667 128 234.666667L213.333333 234.666667C225.109333 234.666667 234.666667 244.224 234.666667 256 234.666667 267.776 225.109333 277.333333 213.333333 277.333333" p-id="2433" ></path><path d="M213.333333 533.333333 128 533.333333C116.224 533.333333 106.666667 523.776 106.666667 512 106.666667 500.224 116.224 490.666667 128 490.666667L213.333333 490.666667C225.109333 490.666667 234.666667 500.224 234.666667 512 234.666667 523.776 225.109333 533.333333 213.333333 533.333333" p-id="2434" ></path><path d="M213.333333 789.333333 128 789.333333C116.224 789.333333 106.666667 779.776 106.666667 768 106.666667 756.224 116.224 746.666667 128 746.666667L213.333333 746.666667C225.109333 746.666667 234.666667 756.224 234.666667 768 234.666667 779.776 225.109333 789.333333 213.333333 789.333333" p-id="2435"></path></svg>