<?xml version="1.0" standalone="no"?><!DOCTYPE svg PUBLIC "-//W3C//DTD SVG 1.1//EN" "http://www.w3.org/Graphics/SVG/1.1/DTD/svg11.dtd"><svg t="1527661563651" class="icon" style="" viewBox="0 0 1024 1024" version="1.1" xmlns="http://www.w3.org/2000/svg" p-id="6512" xmlns:xlink="http://www.w3.org/1999/xlink" width="128" height="128"><defs><style type="text/css"></style></defs><path d="M956.8 748.8c3.2 12.8 4 25.6 4 39.2 3.2 1.6 51.2 24.8 42.4 52l-3.2 9.6c-6.4 20.8-52.8 20-64.8 19.2-7.2 11.2-16 21.6-25.6 30.4 0.8 1.6 20.8 52.8-5.6 66.4l-12.8 7.2c-20 10.4-50.4-24.8-56.8-33.6-13.6 3.2-27.2 4-41.6 3.2l2.4 0.8c0 0-24 51.2-52.8 42.4l-9.6-3.2c-21.6-6.4-20-56.8-19.2-65.6-12-8-22.4-16.8-31.2-26.4l1.6 2.4c0 0-52.8 20-67.2-6.4l-6.4-10.4c-10.4-20 27.2-53.6 34.4-60-2.4-12.8-4-25.6-4-38.4-8-4.8-50.4-31.2-43.2-52.8l3.2-9.6c8-25.6 54.4-20 65.6-18.4 7.2-11.2 15.2-20.8 24.8-29.6-2.4-8.8-16-57.6 4.8-68.8l12-4.8c23.2-12 52 24 59.2 33.6 12.8-3.2 25.6-4 39.2-4 6.4-9.6 31.2-48.8 52.8-42.4l9.6 3.2c24.8 8 20.8 52 19.2 64.8 11.2 7.2 21.6 16 30.4 25.6 11.2-3.2 56.8-14.4 67.2 4.8l6.4 12C1002.4 713.6 967.2 741.6 956.8 748.8zM834.4 670.4c-62.4-19.2-128.8 16-148.8 78.4-19.2 62.4 16 128.8 78.4 148.8 62.4 19.2 128.8-16 148.8-78.4C932.8 756 897.6 689.6 834.4 670.4zM776 859.2c-41.6-12.8-64.8-56.8-52-99.2 12.8-41.6 56.8-64.8 99.2-52 41.6 12.8 64.8 56.8 52 99.2C862.4 848.8 818.4 872 776 859.2zM811.2 745.6c-20.8-6.4-43.2 5.6-49.6 26.4-6.4 20.8 5.6 43.2 26.4 49.6 20.8 6.4 43.2-5.6 49.6-26.4C844 774.4 832 752 811.2 745.6zM658.4 470.4c-6.4 22.4-15.2 44-26.4 63.2 1.6 2.4 61.6 76.8 24.8 113.6l-18.4 18.4c-27.2 27.2-96-15.2-112.8-26.4-20.8 12-43.2 20.8-67.2 27.2l4.8 0c0 0-12.8 98.4-65.6 98.4l-18.4 0c-40 0-62.4-84-66.4-100-23.2-6.4-45.6-16-66.4-28.8l4 4c0 0-77.6 60.8-114.4 24l-16.8-13.6c-28-28 17.6-103.2 26.4-117.6-11.2-19.2-20-40-25.6-62.4-15.2-4-100-26.4-100-66.4l0-18.4c0-46.4 80.8-61.6 99.2-64.8 6.4-22.4 15.2-43.2 25.6-62.4-8.8-12.8-56-88-27.2-116.8l17.6-14.4c32.8-32.8 100 13.6 115.2 25.6 20-11.2 40.8-20.8 63.2-26.4 4.8-20 27.2-98.4 65.6-98.4l18.4 0c44.8 0 60.8 76 64.8 97.6 22.4 6.4 44 15.2 64.8 26.4 16.8-11.2 87.2-53.6 114.4-26.4l16.8 17.6c32 32-12 96.8-25.6 114.4 11.2 20 20 40.8 26.4 64 5.6 0.8 97.6 14.4 97.6 65.6l0 18.4C756 442.4 679.2 464.8 658.4 470.4zM388 188.8c-114.4 0-207.2 92.8-207.2 207.2 0 114.4 92.8 207.2 207.2 207.2 114.4 0 207.2-92.8 207.2-207.2C595.2 281.6 502.4 188.8 388 188.8zM388 534.4c-76 0-138.4-61.6-138.4-138.4 0-76 61.6-138.4 138.4-138.4 76 0 138.4 61.6 138.4 138.4C526.4 472 464 534.4 388 534.4zM388 327.2c-38.4 0-68.8 31.2-68.8 68.8s31.2 68.8 68.8 68.8c38.4 0 68.8-31.2 68.8-68.8S426.4 327.2 388 327.2z" p-id="6513"></path></svg>