<?xml version="1.0" standalone="no"?><!DOCTYPE svg PUBLIC "-//W3C//DTD SVG 1.1//EN" "http://www.w3.org/Graphics/SVG/1.1/DTD/svg11.dtd"><svg t="1527334796709" class="icon" style="" viewBox="0 0 1024 1024" version="1.1" xmlns="http://www.w3.org/2000/svg" p-id="1618" xmlns:xlink="http://www.w3.org/1999/xlink" width="128" height="128"><defs><style type="text/css"></style></defs><path d="M950.848 548.576q-86.848-134.848-217.728-201.728 34.848 59.424 34.848 128.576 0 105.728-75.136 180.864t-180.864 75.136-180.864-75.136-75.136-180.864q0-69.152 34.848-128.576-130.848 66.848-217.728 201.728 76 117.152 190.56 186.56t248.288 69.44 248.288-69.44 190.56-186.56zM539.424 329.152q0-11.424-8-19.424t-19.424-8q-71.424 0-122.56 51.136t-51.136 122.56q0 11.424 8 19.424t19.424 8 19.424-8 8-19.424q0-49.152 34.848-84t84-34.848q11.424 0 19.424-8t8-19.424zM1024 548.576q0 19.424-11.424 39.424-80 131.424-215.136 210.56t-285.44 79.136-285.44-79.424-215.136-210.272q-11.424-20-11.424-39.424t11.424-39.424q80-130.848 215.136-210.272t285.44-79.424 285.44 79.424 215.136 210.272q11.424 20 11.424 39.424z" p-id="1619" fill="#ffffff"></path></svg>