<?xml version="1.0" standalone="no"?><!DOCTYPE svg PUBLIC "-//W3C//DTD SVG 1.1//EN" "http://www.w3.org/Graphics/SVG/1.1/DTD/svg11.dtd"><svg t="1524885507577" class="icon" style="" viewBox="0 0 1024 1024" version="1.1" xmlns="http://www.w3.org/2000/svg" p-id="2768" xmlns:xlink="http://www.w3.org/1999/xlink" width="200" height="200"><defs><style type="text/css"></style></defs><path d="M868.6 96H720c-7.6 0-15.2 2.9-21 8.7-5.8 5.8-8.7 13.4-8.7 21s2.9 15.2 8.7 21c5.8 5.8 13.4 8.7 21 8.7h106.5L580.1 401.8c-11.6 11.6-11.6 30.4 0 42 11.6 11.6 30.4 11.6 42 0l246.4-246.4V304c0 7.6 2.9 15.2 8.7 21 5.8 5.8 13.4 8.7 21 8.7s15.2-2.9 21-8.7c5.8-5.8 8.7-13.4 8.7-21V155.4c0.1-32.8-26.5-59.4-59.3-59.4zM898.3 690.3c-7.6 0-15.2 2.9-21 8.7-5.8 5.8-8.7 13.4-8.7 21v106.5L622.2 580.1c-11.6-11.6-30.4-11.6-42 0s-11.6 30.4 0 42l246.4 246.4H720c-7.6 0-15.2 2.9-21 8.7-5.8 5.8-8.7 13.4-8.7 21s2.9 15.2 8.7 21c5.8 5.8 13.4 8.7 21 8.7h148.6c32.8 0 59.4-26.6 59.4-59.4V720c0-7.6-2.9-15.2-8.7-21-5.8-5.8-13.4-8.7-21-8.7zM401.8 580.1L155.4 826.5V720c0-7.6-2.9-15.2-8.7-21-5.8-5.8-13.4-8.7-21-8.7s-15.2 2.9-21 8.7c-5.8 5.8-8.7 13.4-8.7 21v148.6c0 32.8 26.6 59.4 59.4 59.4H304c7.6 0 15.2-2.9 21-8.7 5.8-5.8 8.7-13.4 8.7-21s-2.9-15.2-8.7-21c-5.8-5.8-13.4-8.7-21-8.7H197.5l246.4-246.4c11.6-11.6 11.6-30.4 0-42-11.6-11.7-30.5-11.7-42.1-0.1zM197.5 155.4H304c7.6 0 15.2-2.9 21-8.7 5.8-5.8 8.7-13.4 8.7-21s-2.9-15.2-8.7-21c-5.8-5.8-13.4-8.7-21-8.7H155.4C122.6 96 96 122.6 96 155.4V304c0 7.6 2.9 15.2 8.7 21 5.8 5.8 13.4 8.7 21 8.7s15.2-2.9 21-8.7c5.8-5.8 8.7-13.4 8.7-21V197.5l246.4 246.4c11.6 11.6 30.4 11.6 42 0 11.6-11.6 11.6-30.4 0-42L197.5 155.4z" p-id="2769"></path></svg>