<?xml version="1.0" standalone="no"?><!DOCTYPE svg PUBLIC "-//W3C//DTD SVG 1.1//EN" "http://www.w3.org/Graphics/SVG/1.1/DTD/svg11.dtd"><svg t="1546484240169" class="icon" style="" viewBox="0 0 1024 1024" version="1.1" xmlns="http://www.w3.org/2000/svg" p-id="3602" xmlns:xlink="http://www.w3.org/1999/xlink" width="10" height="10"><defs><style type="text/css"></style></defs><path d="M408.418 604.043h65.625v-42h-65.625c-27.611 0-41.416-9.139-41.416-27.416 0-17.89 13.805-26.834 41.416-26.834h37.042l-87.208-136.791c-7-10.89-11.57-18.667-13.709-23.334-2.139-4.666-3.208-9.82-3.208-15.458 0-10.111 3.062-18.23 9.187-24.354 6.125-6.125 14.049-9.188 23.771-9.188 9.917 0 17.938 3.014 24.063 9.042 6.125 6.028 13.27 15.75 21.437 29.167l94.209 147.583 84.291-139.125a1410.989 1410.989 0 0 1 9.917-17.063c3.5-5.93 6.903-10.986 10.208-15.166 3.306-4.18 7.438-7.632 12.396-10.354 4.958-2.723 10.84-4.084 17.646-4.084 9.722 0 17.646 2.966 23.77 8.896 6.126 5.93 9.188 13.174 9.188 21.73 0 6.805-1.215 13.027-3.646 18.666-2.43 5.639-6.27 12.736-11.52 21.292l-84 138.541h37.041c27.417 0 41.125 8.945 41.125 26.834 0 18.277-13.708 27.416-41.125 27.416h-65.916v42h65.916c27.417 0 41.125 9.14 41.125 27.417 0 17.889-13.708 26.833-41.125 26.833h-65.916v23.334c0 39.472-13.125 59.208-39.375 59.208-26.64 0-39.959-19.736-39.959-59.208v-23.334h-65.625c-27.611 0-41.416-8.944-41.416-26.833 0-18.278 13.805-27.417 41.416-27.417z m415.628-383.027c16.07 17.233 15.128 44.232-2.106 60.303-17.234 16.07-44.232 15.128-60.303-2.106-128.566-137.87-344.554-145.412-482.424-16.847C141.343 390.932 133.8 606.921 262.366 744.79c128.566 137.87 344.555 145.413 482.424 16.847 97.987-91.374 132.527-230.067 91.877-355.291-7.275-22.413 4.996-46.48 27.409-53.756 22.413-7.275 46.48 4.996 53.755 27.409 50.795 156.474 7.616 329.852-114.843 444.047-172.338 160.707-442.324 151.279-603.03-21.058C39.25 630.65 48.677 360.664 221.015 199.958c172.337-160.708 442.323-151.28 603.03 21.058z" p-id="3603" data-spm-anchor-id="a313x.7781069.0.i12" fill="#ffffff" class="selected"></path></svg>