<?xml version="1.0" standalone="no"?><!DOCTYPE svg PUBLIC "-//W3C//DTD SVG 1.1//EN" "http://www.w3.org/Graphics/SVG/1.1/DTD/svg11.dtd"><svg t="1527335227928" class="icon" style="" viewBox="0 0 1024 1024" version="1.1" xmlns="http://www.w3.org/2000/svg" p-id="5053" xmlns:xlink="http://www.w3.org/1999/xlink" width="128" height="128"><defs><style type="text/css"></style></defs><path d="M604.842667 1024h156.757333c144.042667 0 262.4-118.357333 262.4-262.4V262.4C1024 118.4 905.642667 0 761.6 0H601.6c-3.157333 0-6.4 3.157333-6.4 6.4v1011.2c-0.042667 3.242667 3.2 6.4 9.642667 6.4z m195.157333-563.157333c57.642667 0 102.357333 48 102.357333 102.314666 0 57.685333-48 102.4-102.357333 102.4-57.6 0-102.4-44.757333-102.4-102.4-3.2-57.557333 44.8-102.314667 102.4-102.314666zM486.4 0H262.4C118.4 0 0 118.4 0 262.4v499.2C0 905.642667 118.4 1024 262.4 1024h224c3.157333 0 6.4-3.157333 6.4-6.357333V6.4c0.042667-3.242667-3.2-6.4-6.4-6.4zM412.842667 940.842667H262.4a178.944 178.944 0 0 1-179.242667-179.242667V262.4A178.944 178.944 0 0 1 262.4 83.157333H409.6l3.242667 857.685334zM160 307.157333c0 54.4 41.6 96 96 96s96-41.6 96-96c0-54.314667-41.6-96-96-96s-96 41.685333-96 96z" fill="#ffffff" p-id="5054"></path></svg>