<?xml version="1.0" standalone="no"?><!DOCTYPE svg PUBLIC "-//W3C//DTD SVG 1.1//EN" "http://www.w3.org/Graphics/SVG/1.1/DTD/svg11.dtd"><svg t="1527661117665" class="icon" style="" viewBox="0 0 1024 1024" version="1.1" xmlns="http://www.w3.org/2000/svg" p-id="1354" xmlns:xlink="http://www.w3.org/1999/xlink" width="128" height="128"><defs><style type="text/css"></style></defs><path d="M894.030769 177.230769c0-74.830769-171.323077-135.876923-382.030769-135.876923S129.969231 102.4 129.969231 177.230769v47.261539c0 74.830769 171.323077 135.876923 382.030769 135.876923s382.030769-61.046154 382.030769-135.876923V177.230769zM129.969231 334.769231c0 59.076923 171.323077 106.338462 382.030769 106.338461S894.030769 393.846154 894.030769 334.769231v96.492307c0 74.830769-171.323077 135.876923-382.030769 135.876924S129.969231 506.092308 129.969231 431.261538V334.769231z m0 0c0 59.076923 171.323077 106.338462 382.030769 106.338461S894.030769 393.846154 894.030769 334.769231v96.492307c0 74.830769-171.323077 135.876923-382.030769 135.876924S129.969231 506.092308 129.969231 431.261538V334.769231z m0 206.769231c0 59.076923 171.323077 106.338462 382.030769 106.338461s382.030769-47.261538 382.030769-106.338461v96.492307c0 74.830769-171.323077 135.876923-382.030769 135.876923s-382.030769-59.076923-382.030769-133.907692v-98.461538z m0 208.738461c0 59.076923 171.323077 106.338462 382.030769 106.338462s382.030769-47.261538 382.030769-106.338462V846.769231c0 74.830769-171.323077 135.876923-382.030769 135.876923S129.969231 921.6 129.969231 846.769231v-96.492308z" p-id="1355"></path></svg>