<?xml version="1.0" standalone="no"?><!DOCTYPE svg PUBLIC "-//W3C//DTD SVG 1.1//EN" "http://www.w3.org/Graphics/SVG/1.1/DTD/svg11.dtd"><svg t="1546483811064" class="icon" style="" viewBox="0 0 1024 1024" version="1.1" xmlns="http://www.w3.org/2000/svg" p-id="2817" xmlns:xlink="http://www.w3.org/1999/xlink" width="10" height="10"><defs><style type="text/css"></style></defs><path d="M839.168 580.096c0-15.872-12.8-28.672-28.672-28.672-15.872 0-28.672 12.8-28.672 28.672v238.592c0 2.048 0 3.584 0.512 5.632 0.512 2.048 0.512 9.216-2.048 12.288-1.536 1.536-5.632 3.584-14.336 3.584h-160.256l-1.024-169.472c1.024-8.704 2.56-37.376-14.848-58.368-7.68-9.216-22.016-19.968-46.08-19.968H481.28c-24.064 0-38.4 10.752-46.08 19.968-17.408 20.48-15.872 49.152-14.848 58.368l-1.024 168.96H258.56c-8.192 0-12.8-1.536-14.336-3.072-2.048-2.56-2.56-8.704-2.048-12.288 0.512-2.048 0.512-3.584 0.512-5.12v-238.592c0-15.872-12.8-28.672-28.672-28.672-15.872 0-28.672 12.8-28.672 28.672v230.912c-1.536 10.24-2.56 35.84 14.336 56.32 9.216 11.264 26.624 24.064 58.368 24.064h188.928c15.872 0 28.672-12.8 28.672-18.432l1.024-194.56c0-11.776 0-13.312-0.512-14.848-0.512-5.12 0-11.776 1.536-14.336h67.072c1.024 2.048 2.048 9.216 1.536 14.336-0.512 1.536-0.512 3.072-0.512 14.848l1.024 194.56c0 5.632 12.8 18.432 28.672 18.432h188.928c31.744 0 49.152-13.312 58.368-24.064 16.896-20.48 15.872-46.08 14.336-56.32l2.048-231.424z" fill="#ffffff" p-id="2818" data-spm-anchor-id="a313x.7781069.0.i6" class=""></path><path d="M934.4 526.848L609.28 177.152c-6.656-7.168-39.936-43.008-90.112-45.056-36.352-1.024-71.168 15.36-102.912 49.152-47.104 49.152-151.552 160.256-311.808 329.728-9.216 9.728-14.336 15.36-14.848 15.872-10.752 11.264-10.24 29.696 1.024 40.96 5.12 5.12 12.288 7.68 19.968 7.68h1.024c7.68 0 14.848-3.584 19.968-9.216 0.512-0.512 6.144-6.656 15.872-16.896 159.744-168.96 263.68-279.552 309.76-328.192 19.968-20.992 39.936-31.744 58.88-31.232 27.136 0.512 47.104 23.552 48.64 25.088l1.024 1.024 326.144 350.208c5.632 5.632 13.312 9.216 20.992 9.216 7.168 0 14.336-2.56 19.456-7.68 11.776-11.264 12.8-29.184 2.048-40.96z" fill="#ffffff" p-id="2819" data-spm-anchor-id="a313x.7781069.0.i8" class=""></path></svg>