<?xml version="1.0" standalone="no"?><!DOCTYPE svg PUBLIC "-//W3C//DTD SVG 1.1//EN" "http://www.w3.org/Graphics/SVG/1.1/DTD/svg11.dtd"><svg t="1527661436878" class="icon" style="" viewBox="0 0 1024 1024" version="1.1" xmlns="http://www.w3.org/2000/svg" p-id="3710" xmlns:xlink="http://www.w3.org/1999/xlink" width="128" height="128"><defs><style type="text/css"></style></defs><path d="M329.142857 786.285714l0-109.714286q0-7.972571-5.12-13.165714t-13.165714-5.12l-182.857143 0q-7.972571 0-13.165714 5.12t-5.12 13.165714l0 109.714286q0 7.972571 5.12 13.165714t13.165714 5.12l182.857143 0q7.972571 0 13.165714-5.12t5.12-13.165714zM329.142857 566.857143l0-109.714286q0-7.972571-5.12-13.165714t-13.165714-5.12l-182.857143 0q-7.972571 0-13.165714 5.12t-5.12 13.165714l0 109.714286q0 7.972571 5.12 13.165714t13.165714 5.12l182.857143 0q7.972571 0 13.165714-5.12t5.12-13.165714zM621.714286 786.285714l0-109.714286q0-7.972571-5.12-13.165714t-13.165714-5.12l-182.857143 0q-7.972571 0-13.165714 5.12t-5.12 13.165714l0 109.714286q0 7.972571 5.12 13.165714t13.165714 5.12l182.857143 0q7.972571 0 13.165714-5.12t5.12-13.165714zM329.142857 347.428571l0-109.714286q0-7.972571-5.12-13.165714t-13.165714-5.12l-182.857143 0q-7.972571 0-13.165714 5.12t-5.12 13.165714l0 109.714286q0 7.972571 5.12 13.165714t13.165714 5.12l182.857143 0q7.972571 0 13.165714-5.12t5.12-13.165714zM621.714286 566.857143l0-109.714286q0-7.972571-5.12-13.165714t-13.165714-5.12l-182.857143 0q-7.972571 0-13.165714 5.12t-5.12 13.165714l0 109.714286q0 7.972571 5.12 13.165714t13.165714 5.12l182.857143 0q7.972571 0 13.165714-5.12t5.12-13.165714zM914.285714 786.285714l0-109.714286q0-7.972571-5.12-13.165714t-13.165714-5.12l-182.857143 0q-7.972571 0-13.165714 5.12t-5.12 13.165714l0 109.714286q0 7.972571 5.12 13.165714t13.165714 5.12l182.857143 0q7.972571 0 13.165714-5.12t5.12-13.165714zM621.714286 347.428571l0-109.714286q0-7.972571-5.12-13.165714t-13.165714-5.12l-182.857143 0q-7.972571 0-13.165714 5.12t-5.12 13.165714l0 109.714286q0 7.972571 5.12 13.165714t13.165714 5.12l182.857143 0q7.972571 0 13.165714-5.12t5.12-13.165714zM914.285714 566.857143l0-109.714286q0-7.972571-5.12-13.165714t-13.165714-5.12l-182.857143 0q-7.972571 0-13.165714 5.12t-5.12 13.165714l0 109.714286q0 7.972571 5.12 13.165714t13.165714 5.12l182.857143 0q7.972571 0 13.165714-5.12t5.12-13.165714zM914.285714 347.428571l0-109.714286q0-7.972571-5.12-13.165714t-13.165714-5.12l-182.857143 0q-7.972571 0-13.165714 5.12t-5.12 13.165714l0 109.714286q0 7.972571 5.12 13.165714t13.165714 5.12l182.857143 0q7.972571 0 13.165714-5.12t5.12-13.165714zM987.428571 164.571429l0 621.714286q0 37.741714-26.843429 64.585143t-64.585143 26.843429l-768 0q-37.741714 0-64.585143-26.843429t-26.843429-64.585143l0-621.714286q0-37.741714 26.843429-64.585143t64.585143-26.843429l768 0q37.741714 0 64.585143 26.843429t26.843429 64.585143z" p-id="3711"></path></svg>