<?xml version="1.0" standalone="no"?><!DOCTYPE svg PUBLIC "-//W3C//DTD SVG 1.1//EN" "http://www.w3.org/Graphics/SVG/1.1/DTD/svg11.dtd"><svg t="1527334721328" class="icon" style="" viewBox="0 0 1024 1024" version="1.1" xmlns="http://www.w3.org/2000/svg" p-id="3252" xmlns:xlink="http://www.w3.org/1999/xlink" width="128" height="128"><defs><style type="text/css"></style></defs><path d="M416 512a224 224 0 1 1 0-448 224 224 0 0 1 0 448zM0 960c0-247.424 186.24-448 416-448s416 200.576 416 448H0z m886.784-128a448.768 448.768 0 0 0-298.752-334.72A255.808 255.808 0 0 0 704 282.88a255.36 255.36 0 0 0-85.504-190.912c7.04-0.64 14.272-1.024 21.504-1.024 121.216 0 219.456 99.328 219.456 221.824a222.336 222.336 0 0 1-90.56 179.584C917.568 543.936 1024 680.96 1024 832h-137.216z" p-id="3253" fill="#ffffff"></path></svg>